<svg xmlns="http://www.w3.org/2000/svg" viewBox="0 0 32 32">
  <circle cx="16" cy="16" r="16" fill="#0a0a0a"/>
  <!-- G da Globo estilizado em laranja -->
  <path d="M16 6C10.477 6 6 10.477 6 16C6 21.523 10.477 26 16 26C21.523 26 26 21.523 26 16C26 13.5 25.1 11.2 23.6 9.4L17.5 15.5H22V18H14V10.2C14.6 10.1 15.3 10 16 10C19.3 10 22.2 11.7 23.9 14.3L21.4 11.8C20 10.7 18.1 10 16 10" fill="none"/>
  <path d="M22 16.5H16.5V20H22C21.2 21.8 19.7 23.2 17.8 23.7L23 18.5C22.8 17.8 22.5 17.1 22 16.5Z" fill="none"/>
  <!-- Letra G simplificada -->
  <text x="16" y="21" font-family="Arial, sans-serif" font-size="16" font-weight="900" fill="#e8630a" text-anchor="middle">G</text>
</svg>
